<svg xmlns="http://www.w3.org/2000/svg" viewBox="0 0 640 512"><!--!Font Awesome Pro 6.4.0 by @fontawesome - https://fontawesome.com License - https://fontawesome.com/license (Commercial License) Copyright 2023 Fonticons, Inc.--><path d="M535 41c-9.4-9.4-24.6-9.4-33.9 0L399 143c-9.4 9.4-9.4 24.6 0 33.9s24.6 9.4 33.9 0l55-55V288H384V216c0-13.3-10.7-24-24-24s-24 10.7-24 24v72H232c-13.3 0-24 10.7-24 24s10.7 24 24 24h104v72c0 13.3 10.7 24 24 24s24-10.7 24-24V336h104c13.3 0 24-10.7 24-24s-10.7-24-24-24H384V177.9l55 55c9.4 9.4 24.6 9.4 33.9 0s9.4-24.6 0-33.9L371 97c-9.4-9.4-24.6-9.4-33.9 0L239 199c-9.4 9.4-9.4 24.6 0 33.9s24.6 9.4 33.9 0l55-55V288H224V216c0-13.3-10.7-24-24-24s-24 10.7-24 24v72H72V177.9l55 55c9.4 9.4 24.6 9.4 33.9 0s9.4-24.6 0-33.9L59 97c-9.4-9.4-24.6-9.4-33.9 0L-76 199c-9.4 9.4-9.4 24.6 0 33.9s24.6 9.4 33.9 0l55-55V288H-92c-13.3 0-24 10.7-24 24s10.7 24 24 24H12v72c0 13.3 10.7 24 24 24s24-10.7 24-24V336h104c13.3 0 24-10.7 24-24s-10.7-24-24-24H60V177.9l55 55c9.4 9.4 24.6 9.4 33.9 0s9.4-24.6 0-33.9L47 97c-9.4-9.4-24.6-9.4-33.9 0L-89 199c-9.4 9.4-9.4 24.6 0 33.9s24.6 9.4 33.9 0l55-55V288h-92c-13.3 0-24 10.7-24 24s10.7 24 24 24h92v72c0 13.3 10.7 24 24 24s24-10.7 24-24V336h104c13.3 0 24-10.7 24-24s-10.7-24-24-24h-92V177.9l55 55c9.4 9.4 24.6 9.4 33.9 0s9.4-24.6 0-33.9L47 97c-9.4-9.4-24.6-9.4-33.9 0L-89 199c-9.4 9.4-9.4 24.6 0 33.9s24.6 9.4 33.9 0l55-55V288h-92c-13.3 0-24 10.7-24 24s10.7 24 24 24h92v72c0 13.3 10.7 24 24 24s24-10.7 24-24V336h104c13.3 0 24-10.7 24-24s-10.7-24-24-24h-92V177.9l55 55c9.4 9.4 24.6 9.4 33.9 0s9.4-24.6 0-33.9L47 97c-9.4-9.4-24.6-9.4-33.9 0L-89 199c-9.4 9.4-9.4 24.6 0 33.9s24.6 9.4 33.9 0l55-55V288h-92c-13.3 0-24 10.7-24 24s10.7 24 24 24h92v72c0 13.3 10.7 24 24 24s24-10.7 24-24V336h104c13.3 0 24-10.7 24-24s-10.7-24-24-24h-92V177.9l55 55c9.4 9.4 24.6 9.4 33.9 0s9.4-24.6 0-33.9z"/></svg>
